<svg width="588" height="53" viewBox="0 0 588 53" fill="none" xmlns="http://www.w3.org/2000/svg">
<path d="M9.83469 5.21028V24.0457C9.83469 25.9292 10.2981 27.3792 11.2249 28.3957C12.1518 29.4122 13.5121 29.9205 15.3059 29.9205C17.0998 29.9205 18.4751 29.4122 19.4318 28.3957C20.3885 27.3792 20.8668 25.9292 20.8668 24.0457V5.21028H28.5355V24.0008C28.5355 26.8112 27.9376 29.188 26.7417 31.1314C25.5458 33.0747 23.9313 34.5397 21.8983 35.5263C19.8952 36.5129 17.6529 37.0062 15.1714 37.0062C12.6899 37.0062 10.4625 36.5279 8.48931 35.5711C6.546 34.5845 5.00627 33.1196 3.87017 31.1762C2.73407 29.203 2.16602 26.8112 2.16602 24.0008V5.21028H9.83469ZM49.1684 11.3991C52.0984 11.3991 54.4304 12.3558 56.1644 14.2692C57.9284 16.1527 58.8103 18.7538 58.8103 22.0724V36.6923H51.1864V23.1039C51.1864 21.4296 50.7531 20.1291 49.8859 19.2023C49.0187 18.2755 47.8527 17.8121 46.3879 17.8121C44.9231 17.8121 43.7571 18.2755 42.8899 19.2023C42.0227 20.1291 41.5894 21.4296 41.5894 23.1039V36.6923H33.9206V11.6681H41.5894V14.9867C42.3668 13.8806 43.413 13.0135 44.7286 12.3857C46.0442 11.7279 47.5241 11.3991 49.1684 11.3991ZM67.996 9.06705C66.6506 9.06705 65.5445 8.6784 64.6774 7.90105C63.8404 7.09382 63.4217 6.1072 63.4217 4.9412C63.4217 3.7453 63.8404 2.75869 64.6774 1.98135C65.5445 1.17412 66.6506 0.770508 67.996 0.770508C69.3116 0.770508 70.3879 1.17412 71.2249 1.98135C72.0921 2.75869 72.5255 3.7453 72.5255 4.9412C72.5255 6.1072 72.0921 7.09382 71.2249 7.90105C70.3879 8.6784 69.3116 9.06705 67.996 9.06705ZM71.8079 11.6681V36.6923H64.1392V11.6681H71.8079ZM75.8404 24.1802C75.8404 21.5791 76.3639 19.3069 77.41 17.3636C78.4863 15.4202 79.9663 13.9254 81.8498 12.879C83.7635 11.8326 85.9459 11.3094 88.3973 11.3094C91.5366 11.3094 94.1527 12.1316 96.2454 13.7759C98.3683 15.4202 99.7585 17.7373 100.416 20.7271H92.2541C91.5667 18.8136 90.236 17.8569 88.2628 17.8569C86.8579 17.8569 85.7367 18.41 84.8993 19.5162C84.0623 20.5925 83.6436 22.1472 83.6436 24.1802C83.6436 26.2132 84.0623 27.7829 84.8993 28.8891C85.7367 29.9654 86.8579 30.5035 88.2628 30.5035C90.236 30.5035 91.5667 29.5468 92.2541 27.6334H100.416C99.7585 30.5633 98.3683 32.8654 96.2454 34.5397C94.123 36.2139 91.5068 37.0511 88.3973 37.0511C85.9459 37.0511 83.7635 36.5279 81.8498 35.4814C79.9663 34.435 78.4863 32.9402 77.41 30.9968C76.3639 29.0535 75.8404 26.7813 75.8404 24.1802ZM115.909 37.0511C113.458 37.0511 111.245 36.5279 109.272 35.4814C107.329 34.435 105.789 32.9402 104.653 30.9968C103.547 29.0535 102.994 26.7813 102.994 24.1802C102.994 21.609 103.561 19.3518 104.698 17.4084C105.834 15.4352 107.388 13.9254 109.362 12.879C111.335 11.8326 113.547 11.3094 115.999 11.3094C118.45 11.3094 120.663 11.8326 122.636 12.879C124.609 13.9254 126.164 15.4352 127.3 17.4084C128.436 19.3518 129.004 21.609 129.004 24.1802C129.004 26.7514 128.421 29.0236 127.255 30.9968C126.119 32.9402 124.549 34.435 122.546 35.4814C120.573 36.5279 118.361 37.0511 115.909 37.0511ZM115.909 30.4138C117.374 30.4138 118.615 29.8757 119.631 28.7994C120.678 27.7231 121.201 26.1833 121.201 24.1802C121.201 22.1771 120.693 20.6374 119.676 19.5611C118.69 18.4847 117.464 17.9466 115.999 17.9466C114.504 17.9466 113.263 18.4847 112.277 19.5611C111.29 20.6075 110.797 22.1472 110.797 24.1802C110.797 26.1833 111.275 27.7231 112.232 28.7994C113.218 29.8757 114.444 30.4138 115.909 30.4138ZM140.741 15.8388C141.638 14.4636 142.759 13.3872 144.105 12.6099C145.45 11.8027 146.945 11.3991 148.589 11.3991V19.5162H146.482C144.568 19.5162 143.133 19.9348 142.176 20.7719C141.22 21.5791 140.741 23.0142 140.741 25.0771V36.6923H133.073V11.6681H140.741V15.8388ZM167.503 11.3991C170.432 11.3991 172.764 12.3558 174.499 14.2692C176.262 16.1527 177.145 18.7538 177.145 22.0724V36.6923H169.521V23.1039C169.521 21.4296 169.087 20.1291 168.22 19.2023C167.353 18.2755 166.187 17.8121 164.722 17.8121C163.257 17.8121 162.091 18.2755 161.224 19.2023C160.357 20.1291 159.924 21.4296 159.924 23.1039V36.6923H152.255V11.6681H159.924V14.9867C160.701 13.8806 161.747 13.0135 163.063 12.3857C164.378 11.7279 165.858 11.3991 167.503 11.3991ZM211.575 31.1314H199.825L197.941 36.6923H189.914L201.305 5.21028H210.184L221.575 36.6923H213.458L211.575 31.1314ZM209.601 25.2117L205.7 13.6862L201.843 25.2117H209.601ZM234.55 11.3094C236.314 11.3094 237.853 11.6681 239.169 12.3857C240.514 13.1032 241.546 14.045 242.263 15.211V11.6681H249.932V36.6474C249.932 38.9496 249.468 41.0273 248.542 42.8811C247.645 44.7646 246.255 46.2596 244.371 47.3657C242.517 48.4717 240.2 49.025 237.42 49.025C233.713 49.025 230.708 48.1431 228.406 46.3791C226.104 44.6451 224.788 42.283 224.459 39.2934H232.038C232.278 40.2501 232.846 40.9975 233.743 41.5357C234.639 42.1036 235.745 42.3877 237.061 42.3877C238.646 42.3877 239.902 41.9242 240.828 40.9975C241.785 40.1006 242.263 38.6506 242.263 36.6474V33.1046C241.516 34.2706 240.485 35.2273 239.169 35.9747C237.853 36.6923 236.314 37.0511 234.55 37.0511C232.487 37.0511 230.618 36.5279 228.944 35.4814C227.27 34.4051 225.939 32.8953 224.953 30.952C223.996 28.9787 223.518 26.7066 223.518 24.1354C223.518 21.5642 223.996 19.3069 224.953 17.3636C225.939 15.4202 227.27 13.9254 228.944 12.879C230.618 11.8326 232.487 11.3094 234.55 11.3094ZM242.263 24.1802C242.263 22.2668 241.725 20.7569 240.649 19.6507C239.602 18.5446 238.317 17.9914 236.792 17.9914C235.267 17.9914 233.967 18.5446 232.89 19.6507C231.844 20.7271 231.321 22.2219 231.321 24.1354C231.321 26.0488 231.844 27.5735 232.89 28.7097C233.967 29.8159 235.267 30.369 236.792 30.369C238.317 30.369 239.602 29.8159 240.649 28.7097C241.725 27.6035 242.263 26.0936 242.263 24.1802ZM263.149 15.8388C264.045 14.4636 265.167 13.3872 266.512 12.6099C267.857 11.8027 269.352 11.3991 270.997 11.3991V19.5162H268.889C266.976 19.5162 265.54 19.9348 264.584 20.7719C263.627 21.5791 263.149 23.0142 263.149 25.0771V36.6923H255.48V11.6681H263.149V15.8388ZM286.053 37.0511C283.602 37.0511 281.389 36.5279 279.416 35.4814C277.472 34.435 275.933 32.9402 274.797 30.9968C273.691 29.0535 273.137 26.7813 273.137 24.1802C273.137 21.609 273.705 19.3518 274.842 17.4084C275.978 15.4352 277.532 13.9254 279.506 12.879C281.479 11.8326 283.691 11.3094 286.143 11.3094C288.594 11.3094 290.807 11.8326 292.78 12.879C294.753 13.9254 296.308 15.4352 297.444 17.4084C298.58 19.3518 299.148 21.609 299.148 24.1802C299.148 26.7514 298.565 29.0236 297.399 30.9968C296.263 32.9402 294.693 34.435 292.69 35.4814C290.717 36.5279 288.505 37.0511 286.053 37.0511ZM286.053 30.4138C287.518 30.4138 288.759 29.8757 289.775 28.7994C290.822 27.7231 291.345 26.1833 291.345 24.1802C291.345 22.1771 290.837 20.6374 289.82 19.5611C288.834 18.4847 287.608 17.9466 286.143 17.9466C284.648 17.9466 283.407 18.4847 282.421 19.5611C281.434 20.6075 280.941 22.1472 280.941 24.1802C280.941 26.1833 281.419 27.7231 282.376 28.7994C283.362 29.8757 284.588 30.4138 286.053 30.4138Z" fill="#00432C"/>
<path d="M331.779 20.5479C333.603 20.9365 335.068 21.8484 336.174 23.2835C337.281 24.6887 337.834 26.3032 337.834 28.1269C337.834 30.7578 336.907 32.8507 335.053 34.4053C333.229 35.9301 330.673 36.6925 327.384 36.6925H312.72V5.2105H326.891C330.09 5.2105 332.587 5.943 334.38 7.40796C336.204 8.87292 337.116 10.8611 337.116 13.3725C337.116 15.2262 336.623 16.7658 335.636 17.9917C334.68 19.2175 333.394 20.0695 331.779 20.5479ZM320.388 17.9468H325.411C326.667 17.9468 327.624 17.6777 328.281 17.1396C328.969 16.5715 329.313 15.7493 329.313 14.673C329.313 13.5967 328.969 12.7745 328.281 12.2065C327.624 11.6385 326.667 11.3544 325.411 11.3544H320.388V17.9468ZM326.039 30.5037C327.325 30.5037 328.311 30.2197 328.999 29.6517C329.716 29.0537 330.075 28.2016 330.075 27.0954C330.075 25.9892 329.702 25.1222 328.954 24.4943C328.236 23.8665 327.235 23.5526 325.949 23.5526H320.388V30.5037H326.039ZM340.757 24.1356C340.757 21.5644 341.235 19.3072 342.192 17.3638C343.178 15.4205 344.509 13.9256 346.183 12.8792C347.858 11.8328 349.726 11.3096 351.789 11.3096C353.553 11.3096 355.093 11.6683 356.408 12.3859C357.753 13.1034 358.785 14.0452 359.502 15.2112V11.6683H367.171V36.6925H359.502V33.1497C358.755 34.3157 357.709 35.2574 356.363 35.975C355.048 36.6925 353.508 37.0513 351.744 37.0513C349.711 37.0513 347.858 36.5281 346.183 35.4817C344.509 34.4053 343.178 32.8955 342.192 30.9522C341.235 28.979 340.757 26.7068 340.757 24.1356ZM359.502 24.1804C359.502 22.267 358.964 20.7572 357.888 19.651C356.842 18.5448 355.556 17.9917 354.031 17.9917C352.506 17.9917 351.206 18.5448 350.13 19.651C349.083 20.7273 348.56 22.2222 348.56 24.1356C348.56 26.049 349.083 27.5738 350.13 28.7099C351.206 29.8161 352.506 30.3692 354.031 30.3692C355.556 30.3692 356.842 29.8161 357.888 28.7099C358.964 27.6037 359.502 26.0938 359.502 24.1804ZM387.967 11.3993C390.897 11.3993 393.229 12.356 394.963 14.2694C396.727 16.153 397.609 18.754 397.609 22.0727V36.6925H389.985V23.1041C389.985 21.4298 389.551 20.1293 388.684 19.2025C387.817 18.2757 386.651 17.8123 385.186 17.8123C383.721 17.8123 382.555 18.2757 381.688 19.2025C380.821 20.1293 380.388 21.4298 380.388 23.1041V36.6925H372.719V11.6683H380.388V14.987C381.165 13.8808 382.212 13.0137 383.527 12.3859C384.843 11.7282 386.322 11.3993 387.967 11.3993ZM412.446 11.3096C414.211 11.3096 415.748 11.6683 417.065 12.3859C418.41 13.1034 419.442 14.0452 420.159 15.2112V11.6683H427.828V36.6477C427.828 38.9498 427.363 41.0275 426.438 42.8813C425.541 44.7648 424.151 46.2598 422.267 47.3659C420.412 48.472 418.096 49.0252 415.316 49.0252C411.61 49.0252 408.605 48.1434 406.301 46.3793C403.999 44.6454 402.684 42.2832 402.355 39.2936H409.934C410.175 40.2503 410.742 40.9977 411.639 41.5359C412.535 42.1038 413.64 42.388 414.957 42.388C416.543 42.388 417.799 41.9244 418.724 40.9977C419.682 40.1008 420.159 38.6508 420.159 36.6477V33.1048C419.413 34.2708 418.382 35.2275 417.065 35.975C415.748 36.6925 414.211 37.0513 412.446 37.0513C410.383 37.0513 408.516 36.5281 406.84 35.4817C405.165 34.4053 403.835 32.8955 402.848 30.9522C401.891 28.979 401.413 26.7068 401.413 24.1356C401.413 21.5644 401.891 19.3072 402.848 17.3638C403.835 15.4205 405.165 13.9256 406.84 12.8792C408.516 11.8328 410.383 11.3096 412.446 11.3096ZM420.159 24.1804C420.159 22.267 419.621 20.7572 418.545 19.651C417.497 18.5448 416.213 17.9917 414.688 17.9917C413.163 17.9917 411.863 18.5448 410.786 19.651C409.739 20.7273 409.217 22.2222 409.217 24.1356C409.217 26.049 409.739 27.5738 410.786 28.7099C411.863 29.8161 413.163 30.3692 414.688 30.3692C416.213 30.3692 417.497 29.8161 418.545 28.7099C419.621 27.6037 420.159 26.0938 420.159 24.1804ZM441.045 3.50635V36.6925H433.377V3.50635H441.045ZM445.077 24.1356C445.077 21.5644 445.554 19.3072 446.513 17.3638C447.499 15.4205 448.828 13.9256 450.504 12.8792C452.175 11.8328 454.047 11.3096 456.11 11.3096C457.871 11.3096 459.412 11.6683 460.729 12.3859C462.074 13.1034 463.106 14.0452 463.823 15.2112V11.6683H471.492V36.6925H463.823V33.1497C463.073 34.3157 462.029 35.2574 460.684 35.975C459.367 36.6925 457.826 37.0513 456.065 37.0513C454.03 37.0513 452.175 36.5281 450.504 35.4817C448.828 34.4053 447.499 32.8955 446.513 30.9522C445.554 28.979 445.077 26.7068 445.077 24.1356ZM463.823 24.1804C463.823 22.267 463.285 20.7572 462.209 19.651C461.161 18.5448 459.877 17.9917 458.352 17.9917C456.827 17.9917 455.527 18.5448 454.45 19.651C453.403 20.7273 452.881 22.2222 452.881 24.1356C452.881 26.049 453.403 27.5738 454.45 28.7099C455.527 29.8161 456.827 30.3692 458.352 30.3692C459.877 30.3692 461.161 29.8161 462.209 28.7099C463.285 27.6037 463.823 26.0938 463.823 24.1804ZM475.516 24.1356C475.516 21.5644 475.993 19.3072 476.951 17.3638C477.937 15.4205 479.267 13.9256 480.942 12.8792C482.614 11.8328 484.485 11.3096 486.548 11.3096C488.191 11.3096 489.687 11.6534 491.033 12.341C492.406 13.0287 493.483 13.9555 494.261 15.1215V3.50635H501.93V36.6925H494.261V33.1048C493.544 34.3007 492.512 35.2574 491.167 35.975C489.85 36.6925 488.309 37.0513 486.548 37.0513C484.485 37.0513 482.614 36.5281 480.942 35.4817C479.267 34.4053 477.937 32.8955 476.951 30.9522C475.993 28.979 475.516 26.7068 475.516 24.1356ZM494.261 24.1804C494.261 22.267 493.723 20.7572 492.647 19.651C491.599 18.5448 490.315 17.9917 488.79 17.9917C487.265 17.9917 485.965 18.5448 484.889 19.651C483.841 20.7273 483.319 22.2222 483.319 24.1356C483.319 26.049 483.841 27.5738 484.889 28.7099C485.965 29.8161 487.265 30.3692 488.79 30.3692C490.315 30.3692 491.599 29.8161 492.647 28.7099C493.723 27.6037 494.261 26.0938 494.261 24.1804ZM531.064 23.7768C531.064 24.4943 531.019 25.2418 530.929 26.0191H513.574C513.696 27.5738 514.189 28.7697 515.054 29.6068C515.951 30.414 517.043 30.8177 518.328 30.8177C520.244 30.8177 521.573 30.0104 522.319 28.396H530.481C530.065 30.0403 529.303 31.5202 528.194 32.8357C527.117 34.1512 525.76 35.1827 524.113 35.9301C522.47 36.6775 520.631 37.0513 518.597 37.0513C516.146 37.0513 513.965 36.5281 512.049 35.4817C510.137 34.4352 508.641 32.9404 507.564 30.997C506.488 29.0537 505.95 26.7815 505.95 24.1804C505.95 21.5793 506.476 19.3072 507.52 17.3638C508.596 15.4205 510.092 13.9256 512.004 12.8792C513.92 11.8328 516.118 11.3096 518.597 11.3096C521.018 11.3096 523.171 11.8178 525.054 12.8343C526.938 13.8508 528.406 15.3009 529.449 17.1844C530.526 19.068 531.064 21.2654 531.064 23.7768ZM523.216 21.7587C523.216 20.4432 522.767 19.3968 521.87 18.6195C520.973 17.8422 519.852 17.4535 518.507 17.4535C517.223 17.4535 516.13 17.8272 515.233 18.5747C514.369 19.3221 513.831 20.3835 513.619 21.7587H523.216ZM545.292 37.0513C543.107 37.0513 541.166 36.6775 539.462 35.9301C537.758 35.1827 536.413 34.1662 535.426 32.8806C534.439 31.5651 533.885 30.1001 533.767 28.4857H541.346C541.436 29.3527 541.839 30.0553 542.557 30.5934C543.274 31.1316 544.155 31.4007 545.203 31.4007C546.157 31.4007 546.89 31.2213 547.4 30.8625C547.938 30.4739 548.207 29.9805 548.207 29.3826C548.207 28.665 547.832 28.1418 547.086 27.813C546.336 27.4542 545.125 27.0655 543.454 26.647C541.66 26.2284 540.164 25.7949 538.969 25.3464C537.77 24.8681 536.739 24.1356 535.875 23.149C535.006 22.1325 534.574 20.7721 534.574 19.068C534.574 17.6329 534.961 16.3323 535.74 15.1663C536.547 13.9705 537.713 13.0287 539.238 12.341C540.791 11.6534 542.63 11.3096 544.754 11.3096C547.893 11.3096 550.36 12.0869 552.154 13.6416C553.976 15.1962 555.024 17.2592 555.293 19.8303H548.207C548.085 18.9633 547.698 18.2757 547.041 17.7674C546.413 17.2592 545.574 17.005 544.53 17.005C543.633 17.005 542.944 17.1844 542.467 17.5432C541.986 17.8721 541.749 18.3355 541.749 18.9334C541.749 19.651 542.12 20.1891 542.871 20.5479C543.645 20.9067 544.844 21.2654 546.458 21.6242C548.309 22.1025 549.822 22.5809 550.988 23.0593C552.154 23.5077 553.169 24.2552 554.037 25.3016C554.934 26.3181 555.395 27.6934 555.428 29.4274C555.428 30.8924 555.008 32.2079 554.172 33.3739C553.365 34.51 552.182 35.4069 550.629 36.0647C549.104 36.7224 547.323 37.0513 545.292 37.0513ZM575.502 11.3993C578.372 11.3993 580.672 12.356 582.409 14.2694C584.141 16.153 585.01 18.754 585.01 22.0727V36.6925H577.386V23.1041C577.386 21.4298 576.95 20.1293 576.085 19.2025C575.217 18.2757 574.051 17.8123 572.587 17.8123C571.12 17.8123 569.954 18.2757 569.089 19.2025C568.221 20.1293 567.789 21.4298 567.789 23.1041V36.6925H560.12V3.50635H567.789V15.0318C568.563 13.9256 569.627 13.0436 570.973 12.3859C572.318 11.7282 573.827 11.3993 575.502 11.3993Z" fill="#00C012"/>
</svg>
