<svg width="178" height="50" viewBox="0 0 178 50" fill="none" xmlns="http://www.w3.org/2000/svg">
<path d="M41.2559 46.2097V33.8652H46.115C47.0078 33.8652 47.7524 33.9998 48.349 34.2694C48.9455 34.5383 49.3939 34.9118 49.6941 35.3903C49.9944 35.8643 50.1445 36.4107 50.1445 37.0296C50.1445 37.512 50.0498 37.9358 49.8601 38.3013C49.6704 38.6629 49.4096 38.9606 49.078 39.1938C48.75 39.4229 48.3746 39.5854 47.9519 39.682V39.8021C48.4141 39.8224 48.8467 39.9548 49.2498 40.2003C49.6566 40.4452 49.9865 40.7886 50.2393 41.2312C50.4922 41.6693 50.6185 42.1916 50.6185 42.798C50.6185 43.4528 50.4585 44.0377 50.1386 44.5521C49.8225 45.0626 49.3544 45.4661 48.7342 45.7638C48.114 46.0609 47.3495 46.2097 46.4408 46.2097H41.2559ZM43.8218 44.0762H45.9135C46.6286 44.0762 47.15 43.9372 47.4779 43.6598C47.8057 43.379 47.9698 43.0049 47.9698 42.5388C47.9698 42.1974 47.8887 41.8958 47.7268 41.6346C47.5648 41.3735 47.3337 41.1685 47.0334 41.0197C46.7372 40.8714 46.3836 40.797 45.9728 40.797H43.8218V44.0762ZM43.8218 39.0311H45.7238C46.0755 39.0311 46.3875 38.9684 46.6602 38.8438C46.9367 38.7151 47.154 38.5343 47.3119 38.3013C47.4739 38.0682 47.555 37.7894 47.555 37.4637C47.555 37.0178 47.3988 36.658 47.0868 36.3846C46.7786 36.1116 46.3401 35.9746 45.7714 35.9746H43.8218V39.0311ZM54.8365 46.3846C54.2556 46.3846 53.7377 46.2821 53.284 46.0771C52.8295 45.8683 52.4701 45.5608 52.205 45.1547C51.9445 44.7447 51.8142 44.2349 51.8142 43.6239C51.8142 43.1094 51.9067 42.6772 52.0928 42.328C52.2783 41.978 52.5312 41.6972 52.8514 41.4838C53.171 41.271 53.5343 41.1105 53.9412 41.002C54.3525 40.8937 54.7825 40.8173 55.2331 40.7729C55.7625 40.7168 56.1894 40.6646 56.5135 40.6163C56.837 40.564 57.0719 40.4877 57.2182 40.3871C57.3645 40.2865 57.4377 40.1377 57.4377 39.9412V39.9046C57.4377 39.5234 57.3189 39.2277 57.0821 39.0187C56.8492 38.8099 56.5174 38.7054 56.0868 38.7054C55.6323 38.7054 55.271 38.8079 55.002 39.0129C54.7338 39.2139 54.556 39.4666 54.4687 39.7721L52.1338 39.5795C52.2525 39.0167 52.4856 38.5305 52.8334 38.1204C53.1813 37.7066 53.6292 37.3893 54.1786 37.1686C54.7313 36.9434 55.3717 36.8311 56.0983 36.8311C56.604 36.8311 57.088 36.8912 57.55 37.012C58.0166 37.1321 58.4293 37.3187 58.7887 37.572C59.152 37.8253 59.4388 38.1511 59.648 38.5486C59.8574 38.9423 59.962 39.4143 59.962 39.9654V46.2097H57.5681V44.9256H57.4968C57.3505 45.2154 57.1553 45.47 56.9102 45.6914C56.6649 45.9082 56.3711 46.0791 56.027 46.2037C55.6837 46.324 55.2863 46.3846 54.8365 46.3846ZM55.5591 44.6123C55.9308 44.6123 56.2581 44.5377 56.543 44.3895C56.8273 44.2368 57.0507 44.0319 57.2124 43.7747C57.3742 43.5174 57.4557 43.2262 57.4557 42.9006V41.918C57.3761 41.9702 57.2677 42.0185 57.1297 42.063C56.9948 42.1027 56.8428 42.1412 56.6733 42.1771C56.5033 42.2092 56.3332 42.2399 56.1637 42.268C55.9937 42.2921 55.8396 42.3136 55.7016 42.3338C55.4051 42.3783 55.1466 42.4487 54.9251 42.5446C54.7037 42.6413 54.5323 42.7719 54.4097 42.9371C54.2871 43.0976 54.2261 43.298 54.2261 43.5396C54.2261 43.8889 54.35 44.1566 54.5989 44.3413C54.852 44.5221 55.1722 44.6123 55.5591 44.6123ZM64.445 40.857V46.2097H61.9207V36.9512H64.3262V38.5845H64.4328C64.6342 38.0467 64.9725 37.6203 65.4462 37.307C65.9205 36.9897 66.4949 36.8311 67.1706 36.8311C67.8029 36.8311 68.3536 36.9715 68.824 37.2528C69.2938 37.5341 69.6596 37.9358 69.9203 38.4579C70.1807 38.9764 70.3111 39.5952 70.3111 40.3146V46.2097H67.7868V40.7729C67.7907 40.2063 67.6488 39.7643 67.36 39.447C67.0718 39.1252 66.6746 38.9646 66.1695 38.9646C65.8293 38.9646 65.529 39.039 65.2684 39.1878C65.0117 39.336 64.8101 39.5534 64.6637 39.8387C64.522 40.1201 64.4487 40.4596 64.445 40.857ZM76.4017 49.8746C75.5835 49.8746 74.8826 49.7598 74.2979 49.5306C73.7171 49.3061 73.255 48.9986 72.911 48.6089C72.5677 48.2192 72.3443 47.781 72.2416 47.2946L74.5766 46.9755C74.6478 47.1602 74.76 47.3325 74.9141 47.4938C75.0681 47.6544 75.2715 47.783 75.5244 47.8797C75.7811 47.9795 76.0931 48.0297 76.4609 48.0297C77.0103 48.0297 77.4621 47.8933 77.8176 47.6205C78.177 47.3508 78.3567 46.8991 78.3567 46.2639V44.5704H78.2502C78.1397 44.8277 77.9736 45.0706 77.7528 45.2997C77.5314 45.5288 77.2471 45.7155 76.8991 45.8597C76.5519 46.0047 76.1367 46.0771 75.6548 46.0771C74.9711 46.0771 74.3493 45.9166 73.7883 45.5947C73.2313 45.2696 72.7871 44.7728 72.4547 44.1063C72.1273 43.4352 71.9631 42.5871 71.9631 41.5622C71.9631 40.5138 72.1312 39.6377 72.4669 38.9345C72.8025 38.2314 73.2492 37.7046 73.8063 37.3553C74.3672 37.0054 74.9814 36.8311 75.649 36.8311C76.1586 36.8311 76.5853 36.9193 76.9288 37.0962C77.2727 37.2685 77.5494 37.4859 77.7586 37.7469C77.9717 38.0042 78.1359 38.2575 78.2502 38.5063H78.3452V36.9512H80.8521V46.2998C80.8521 47.0878 80.6621 47.7465 80.2828 48.2772C79.9035 48.8073 79.3784 49.2055 78.7066 49.4706C78.039 49.7396 77.2707 49.8746 76.4017 49.8746ZM76.4551 44.148C76.862 44.148 77.2053 44.0455 77.4858 43.8405C77.7701 43.6317 77.9876 43.3346 78.1378 42.9488C78.2919 42.5591 78.3689 42.0929 78.3689 41.5504C78.3689 41.008 78.2938 40.5379 78.1436 40.1397C77.9934 39.7382 77.7765 39.4267 77.4916 39.2054C77.2073 38.9848 76.862 38.8739 76.4551 38.8739C76.0398 38.8739 75.6907 38.9888 75.4056 39.2179C75.1213 39.4425 74.9063 39.7564 74.76 40.158C74.6137 40.5601 74.5405 41.0243 74.5405 41.5504C74.5405 42.0851 74.6137 42.5466 74.76 42.9371C74.9102 43.3222 75.1252 43.6219 75.4056 43.8347C75.6907 44.0435 76.0398 44.148 76.4551 44.148ZM85.3852 33.8652V46.2097H82.8609V33.8652H85.3852ZM90.0029 46.3846C89.4221 46.3846 88.9041 46.2821 88.4504 46.0771C87.9959 45.8683 87.6365 45.5608 87.3716 45.1547C87.111 44.7447 86.9806 44.2349 86.9806 43.6239C86.9806 43.1094 87.0731 42.6772 87.2592 42.328C87.4448 41.978 87.6976 41.6972 88.0178 41.4838C88.3375 41.271 88.7007 41.1105 89.1077 41.002C89.5191 40.8937 89.949 40.8173 90.3996 40.7729C90.929 40.7168 91.3559 40.6646 91.6794 40.6163C92.0035 40.564 92.2383 40.4877 92.3846 40.3871C92.5309 40.2865 92.6041 40.1377 92.6041 39.9412V39.9046C92.6041 39.5234 92.4855 39.2277 92.2486 39.0187C92.0157 38.8099 91.6838 38.7054 91.2532 38.7054C90.7987 38.7054 90.4374 38.8079 90.1685 39.0129C89.9002 39.2139 89.7225 39.4666 89.6352 39.7721L87.3002 39.5795C87.419 39.0167 87.652 38.5305 87.9998 38.1204C88.347 37.7066 88.7957 37.3893 89.345 37.1686C89.8977 36.9434 90.5381 36.8311 91.2647 36.8311C91.7704 36.8311 92.2544 36.8912 92.7165 37.012C93.183 37.1321 93.5957 37.3187 93.9552 37.572C94.3184 37.8253 94.6047 38.1511 94.8145 38.5486C95.0238 38.9423 95.1284 39.4143 95.1284 39.9654V46.2097H92.7345V44.9256H92.6633C92.5169 45.2154 92.3217 45.47 92.0766 45.6914C91.8314 45.9082 91.5375 46.0791 91.1935 46.2037C90.8502 46.324 90.4528 46.3846 90.0029 46.3846ZM90.7256 44.6123C91.0972 44.6123 91.4246 44.5377 91.7095 44.3895C91.9938 44.2368 92.2171 44.0319 92.379 43.7747C92.5406 43.5174 92.6221 43.2262 92.6221 42.9006V41.918C92.5426 41.9702 92.4341 42.0185 92.2961 42.063C92.1613 42.1027 92.0093 42.1412 91.8397 42.1771C91.6697 42.2092 91.4997 42.2399 91.3301 42.268C91.1601 42.2921 91.006 42.3136 90.868 42.3338C90.5715 42.3783 90.313 42.4487 90.0916 42.5446C89.8701 42.6413 89.6988 42.7719 89.5762 42.9371C89.4535 43.0976 89.3926 43.298 89.3926 43.5396C89.3926 43.8889 89.5164 44.1566 89.7654 44.3413C90.0184 44.5221 90.3386 44.6123 90.7256 44.6123ZM100.441 46.3605C99.7494 46.3605 99.1236 46.1796 98.5627 45.818C98.0056 45.4525 97.5628 44.9158 97.2348 44.2088C96.9113 43.4971 96.7489 42.625 96.7489 41.5929C96.7489 40.532 96.9171 39.6493 97.2528 38.9463C97.5884 38.2393 98.0351 37.711 98.5922 37.3612C99.1531 37.0074 99.7673 36.8311 100.435 36.8311C100.944 36.8311 101.369 36.9193 101.709 37.0962C102.053 37.2685 102.329 37.4859 102.539 37.7469C102.752 38.0042 102.914 38.2575 103.024 38.5063H103.101V33.8652H105.62V46.2097H103.131V44.7271H103.024C102.906 44.9844 102.738 45.2389 102.521 45.4922C102.308 45.7416 102.029 45.9486 101.685 46.113C101.346 46.2783 100.931 46.3605 100.441 46.3605ZM101.241 44.3171C101.648 44.3171 101.991 44.2048 102.272 43.9797C102.557 43.7505 102.774 43.4313 102.924 43.0212C103.078 42.6112 103.155 42.1308 103.155 41.5804C103.155 41.0301 103.08 40.5515 102.93 40.1462C102.779 39.7402 102.562 39.4267 102.278 39.2054C101.993 38.9848 101.648 38.8739 101.241 38.8739C100.826 38.8739 100.477 38.9888 100.192 39.2179C99.9072 39.447 99.6922 39.7643 99.5459 40.1704C99.3996 40.5758 99.3271 41.0457 99.3271 41.5804C99.3271 42.119 99.3996 42.595 99.5459 43.0089C99.6961 43.4189 99.9117 43.7407 100.192 43.9737C100.477 44.2022 100.826 44.3171 101.241 44.3171ZM111.844 46.3906C110.907 46.3906 110.101 46.1979 109.426 45.8121C108.754 45.4224 108.237 44.8713 107.873 44.1604C107.51 43.445 107.328 42.5989 107.328 41.6228C107.328 40.6704 107.51 39.8348 107.873 39.1154C108.237 38.3959 108.748 37.8351 109.408 37.4336C110.072 37.0316 110.85 36.8311 111.743 36.8311C112.343 36.8311 112.903 36.929 113.42 37.1261C113.941 37.3187 114.395 37.6105 114.782 38.0004C115.174 38.3901 115.478 38.8803 115.695 39.4712C115.913 40.0573 116.021 40.7448 116.021 41.5321V42.2373H108.335V40.6462H113.645C113.645 40.2767 113.566 39.949 113.408 39.6638C113.25 39.3785 113.031 39.1551 112.75 38.9946C112.474 38.83 112.152 38.7478 111.785 38.7478C111.401 38.7478 111.061 38.838 110.765 39.0187C110.473 39.1956 110.244 39.4345 110.077 39.7362C109.912 40.0332 109.827 40.3648 109.823 40.7304V42.2437C109.823 42.7013 109.906 43.0976 110.072 43.4313C110.242 43.7641 110.48 44.0214 110.788 44.2023C111.097 44.3831 111.462 44.4739 111.885 44.4739C112.166 44.4739 112.422 44.4334 112.655 44.353C112.888 44.2727 113.088 44.152 113.254 43.9914C113.42 43.8307 113.546 43.6337 113.633 43.4005L115.968 43.5579C115.849 44.1285 115.606 44.6266 115.239 45.0522C114.875 45.4746 114.406 45.8037 113.829 46.0406C113.256 46.2737 112.594 46.3906 111.844 46.3906ZM125.242 39.5912L122.931 39.7362C122.891 39.5352 122.806 39.3543 122.676 39.1938C122.546 39.0285 122.374 38.898 122.16 38.8019C121.951 38.7014 121.7 38.6511 121.408 38.6511C121.017 38.6511 120.687 38.7355 120.418 38.9044C120.149 39.069 120.015 39.2903 120.015 39.5671C120.015 39.7885 120.102 39.9751 120.276 40.1279C120.45 40.2807 120.748 40.4033 121.171 40.4954L122.818 40.8329C123.703 41.0177 124.363 41.3153 124.797 41.7254C125.232 42.1354 125.449 42.6732 125.449 43.3405C125.449 43.9476 125.273 44.4797 124.922 44.938C124.574 45.3962 124.096 45.7534 123.488 46.0107C122.883 46.2639 122.186 46.3906 121.396 46.3906C120.191 46.3906 119.231 46.1353 118.516 45.6248C117.805 45.111 117.388 44.4118 117.266 43.5272L119.749 43.3947C119.824 43.7687 120.005 44.0541 120.294 44.2505C120.582 44.4438 120.951 44.5397 121.402 44.5397C121.844 44.5397 122.2 44.4535 122.469 44.2806C122.741 44.1043 122.879 43.8772 122.883 43.5996C122.879 43.3666 122.783 43.176 122.593 43.0272C122.403 42.8744 122.111 42.7582 121.716 42.6772L120.139 42.3579C119.251 42.1772 118.589 41.8638 118.154 41.4178C117.724 40.9721 117.509 40.4033 117.509 39.7121C117.509 39.1174 117.667 38.6049 117.982 38.1747C118.303 37.7451 118.751 37.4135 119.328 37.1803C119.909 36.9472 120.588 36.8311 121.366 36.8311C122.516 36.8311 123.42 37.0778 124.08 37.572C124.744 38.0662 125.131 38.7393 125.242 39.5912ZM129.563 40.857V46.2097H127.039V33.8652H129.492V38.5845H129.598C129.804 38.0383 130.136 37.6105 130.594 37.3012C131.052 36.9877 131.627 36.8311 132.318 36.8311C132.951 36.8311 133.502 36.9715 133.972 37.2528C134.446 37.5303 134.813 37.9298 135.074 38.4521C135.339 38.9704 135.469 39.5913 135.465 40.3146V46.2097H132.941V40.7729C132.945 40.2023 132.802 39.7584 132.514 39.4405C132.23 39.1232 131.831 38.9646 131.317 38.9646C130.973 38.9646 130.669 39.039 130.405 39.1878C130.144 39.336 129.939 39.5534 129.788 39.8387C129.642 40.1201 129.567 40.4596 129.563 40.857Z" fill="#00C012"/>
<path d="M6.73172 29.5558C4.54254 29.5558 2.87322 28.9404 1.72391 27.7088C0.574638 26.4496 0 24.6573 0 22.3308V0.410514H4.51522V22.6595C4.51522 23.645 4.70677 24.3565 5.08987 24.7941C5.5003 25.2323 6.07511 25.4507 6.81383 25.4507C7.55272 25.4507 8.11371 25.2323 8.49682 24.7941C8.90724 24.3565 9.1126 23.645 9.1126 22.6595V0.410514H13.4635V22.3308C13.4635 24.6573 12.8888 26.4496 11.7395 27.7088C10.5902 28.9404 8.92105 29.5558 6.73172 29.5558ZM16.6793 0.410514H22.3439L26.7361 17.6102H26.8181V0.410514H30.8408V29.1453H26.2024L20.7842 8.169H20.7021V29.1453H16.6793V0.410514ZM34.1967 0.410514H38.712V29.1453H34.1967V0.410514ZM48.456 29.5558C46.2941 29.5558 44.6384 28.9404 43.4891 27.7088C42.3673 26.4773 41.8061 24.7392 41.8061 22.4953V7.06057C41.8061 4.81651 42.3673 3.07918 43.4891 1.84763C44.6384 0.616083 46.2941 0 48.456 0C50.6178 0 52.2597 0.616083 53.3818 1.84763C54.5308 3.07918 55.1056 4.81651 55.1056 7.06057V10.0986H50.8367V6.77319C50.8367 4.99439 50.0841 4.10514 48.579 4.10514C47.074 4.10514 46.3214 4.99439 46.3214 6.77319V22.824C46.3214 24.5749 47.074 25.4507 48.579 25.4507C50.0841 25.4507 50.8367 24.5749 50.8367 22.824V18.4313H55.1056V22.4953C55.1056 24.7392 54.5308 26.4773 53.3818 27.7088C52.2597 28.9404 50.6178 29.5558 48.456 29.5558ZM64.4139 29.5558C62.1971 29.5558 60.5003 28.9263 59.3237 27.6677C58.1469 26.4091 57.5586 24.6297 57.5586 22.3308V7.22485C57.5586 4.92618 58.1469 3.14739 59.3237 1.88878C60.5003 0.629536 62.1971 0 64.4139 0C66.6301 0 68.3269 0.629536 69.5035 1.88878C70.6803 3.14739 71.2686 4.92618 71.2686 7.22485V22.3308C71.2686 24.6297 70.6803 26.4091 69.5035 27.6677C68.3269 28.9263 66.6301 29.5558 64.4139 29.5558ZM64.4139 25.4507C65.9735 25.4507 66.7538 24.5065 66.7538 22.6184V6.93745C66.7538 5.0493 65.9735 4.10514 64.4139 4.10514C62.8537 4.10514 62.074 5.0493 62.074 6.93745V22.6184C62.074 24.5065 62.8537 25.4507 64.4139 25.4507ZM74.3219 0.410514H81.0131C83.3388 0.410514 85.0355 0.958234 86.1027 2.05257C87.1699 3.11969 87.7034 4.77536 87.7034 7.02006V8.78508C87.7034 11.7677 86.7188 13.6559 84.7481 14.4499V14.5317C85.843 14.8604 86.6092 15.5306 87.0468 16.5431C87.512 17.5555 87.7447 18.9101 87.7447 20.6069V25.6563C87.7447 26.4773 87.7725 27.1475 87.8273 27.6677C87.8813 28.16 88.0186 28.653 88.237 29.1453H83.6397C83.4761 28.68 83.3665 28.2425 83.3117 27.832C83.2569 27.4214 83.2299 26.6822 83.2299 25.6151V20.3609C83.2299 19.0475 83.0108 18.1304 82.5726 17.6102C82.162 17.0902 81.4371 16.8305 80.3969 16.8305H78.8375V29.1453H74.3219V0.410514ZM80.4795 12.7253C81.3823 12.7253 82.0532 12.4927 82.4907 12.0281C82.956 11.5628 83.1886 10.7823 83.1886 9.68809V7.47109C83.1886 6.43166 82.9972 5.67884 82.6138 5.21357C82.2581 4.7483 81.6832 4.51566 80.89 4.51566H78.8375V12.7253H80.4795ZM90.8779 0.410514H96.5423L100.934 17.6102H101.017V0.410514H105.039V29.1453H100.401L94.9822 8.169H94.9003V29.1453H90.8779V0.410514ZM118.458 0.410514H124.574L129.254 29.1453H124.738L123.917 23.4394V23.5219H118.786L117.965 29.1453H113.779L118.458 0.410514ZM123.384 19.6217L121.372 5.41851H121.29L119.32 19.6217H123.384ZM137.767 29.5558C135.578 29.5558 133.908 28.9404 132.759 27.7088C131.61 26.4496 131.036 24.6573 131.036 22.3308V7.22485C131.036 4.89912 131.61 3.11969 132.759 1.88878C133.908 0.629536 135.578 0 137.767 0C139.956 0 141.625 0.629536 142.775 1.88878C143.924 3.11969 144.499 4.89912 144.499 7.22485V9.68809H140.23V6.93745C140.23 5.0493 139.45 4.10514 137.89 4.10514C136.33 4.10514 135.55 5.0493 135.55 6.93745V22.6595C135.55 24.5208 136.33 25.4507 137.89 25.4507C139.45 25.4507 140.23 24.5208 140.23 22.6595V17.0361H137.972V12.9309H144.499V22.3308C144.499 24.6573 143.924 26.4496 142.775 27.7088C141.625 28.9404 139.956 29.5558 137.767 29.5558ZM147.399 0.410514H154.089C156.416 0.410514 158.111 0.958234 159.179 2.05257C160.247 3.11969 160.779 4.77536 160.779 7.02006V8.78508C160.779 11.7677 159.794 13.6559 157.824 14.4499V14.5317C158.918 14.8604 159.685 15.5306 160.123 16.5431C160.589 17.5555 160.821 18.9101 160.821 20.6069V25.6563C160.821 26.4773 160.848 27.1475 160.903 27.6677C160.958 28.16 161.094 28.653 161.313 29.1453H156.715C156.552 28.68 156.442 28.2425 156.387 27.832C156.332 27.4214 156.306 26.6822 156.306 25.6151V20.3609C156.306 19.0475 156.086 18.1304 155.649 17.6102C155.238 17.0902 154.513 16.8305 153.473 16.8305H151.913V29.1453H147.399V0.410514ZM153.555 12.7253C154.459 12.7253 155.128 12.4927 155.566 12.0281C156.031 11.5628 156.265 10.7823 156.265 9.68809V7.47109C156.265 6.43166 156.073 5.67884 155.689 5.21357C155.334 4.7483 154.759 4.51566 153.966 4.51566H151.913V12.7253H153.555ZM170.48 29.5558C168.263 29.5558 166.566 28.9263 165.39 27.6677C164.213 26.4091 163.625 24.6297 163.625 22.3308V7.22485C163.625 4.92618 164.213 3.14739 165.39 1.88878C166.566 0.629536 168.263 0 170.48 0C172.696 0 174.393 0.629536 175.569 1.88878C176.747 3.14739 177.335 4.92618 177.335 7.22485V22.3308C177.335 24.6297 176.747 26.4091 175.569 27.6677C174.393 28.9263 172.696 29.5558 170.48 29.5558ZM170.48 25.4507C172.04 25.4507 172.82 24.5065 172.82 22.6184V6.93745C172.82 5.0493 172.04 4.10514 170.48 4.10514C168.92 4.10514 168.139 5.0493 168.139 6.93745V22.6184C168.139 24.5065 168.92 25.4507 170.48 25.4507Z" fill="#00432C"/>
</svg>
