<svg width="550" height="550" viewBox="0 0 550 550" fill="none" xmlns="http://www.w3.org/2000/svg">
<circle cx="275" cy="275" r="275" fill="white"/>
<path fill-rule="evenodd" clip-rule="evenodd" d="M329.367 327.141C328.084 343.807 320.962 383.465 283.429 415.69L310.657 475.846C310.657 475.846 325.299 477.005 326.626 497.317L296.364 497.928L293.79 480.227L288.12 479.223L248.374 409.316C265.982 390.718 280.594 375.409 287.491 341.384C300.694 335.166 315.298 331.278 329.367 327.141Z" fill="#00432C"/>
<path fill-rule="evenodd" clip-rule="evenodd" d="M341.697 48.6434C355.392 46.0265 385.386 43.31 411.437 61.7776C411.437 61.7776 393.592 62.4131 395.505 74.5254C397.418 86.6377 423.549 85.6781 434.066 122.333C434.066 122.333 421.001 113.411 418.77 119.143C416.54 124.881 421.954 131.255 435.02 156.433C448.091 181.611 436.615 203.923 436.615 203.923C437.674 182.309 428.178 175.704 421.742 178.352C409.113 133.872 378.146 87.809 343.722 64.3819C343.791 58.8803 343.105 53.5843 341.697 48.6434Z" fill="#00432C"/>
<path fill-rule="evenodd" clip-rule="evenodd" d="M427.163 208.023C438.434 224.378 457.375 249.562 472.347 257.924C470.173 269.924 467.849 311.339 461.437 335.532C457.936 348.76 446.328 358.405 433.131 361.545C434.079 358.33 434.726 355.034 435.007 351.682L437.138 326.523L442.658 326.192V274.397C433.499 271.513 426.863 267.002 419.256 261.232C424.645 247.836 427.449 233.761 427.599 219.213C427.636 215.556 427.48 211.817 427.163 208.023Z" fill="#00432C"/>
<path fill-rule="evenodd" clip-rule="evenodd" d="M314.737 145.818C309.017 147.407 302.911 148.372 296.556 148.559C293.795 166.036 285.409 170.721 277.421 174.036C259.89 162.615 255.997 146.678 255.997 146.678L287.291 89.5554L210.271 41.0874L299.029 70.5395C303.017 65.6298 311.004 63.1812 311.004 63.1812L307.422 25C327.341 30.0406 337.622 47.1935 335.765 68.4398C381.273 96.9573 420.539 167.357 420.003 219.139C419.86 233.644 416.9 248.592 409.99 263.545C415.966 268.567 423.604 273.869 433.499 279.583L427.449 351.041C425.586 372.973 405.018 392.924 392.464 400.562C386.775 388.886 386.233 370.917 386.488 358.2L403.897 356.207L404.414 297.246C397.473 295.975 391.236 294.43 385.61 292.654C353.186 318.879 312.861 319.782 280.668 336.281C280.543 337.122 280.412 337.97 280.256 338.823C269.902 392.469 224.369 418.014 180.258 430.064L159.137 501.81C159.137 501.81 170.038 508.003 171.633 525H139.231L142.151 505.212L135.473 503.099L156.459 410.918C193.19 384.07 199.911 358.406 200.901 331.658C201.297 320.923 200.309 309.863 201.529 299.302C188.461 315.103 190.451 345.658 160.122 374.699C138.458 395.435 99.9912 391.148 82.5691 363.496C87.3343 368.456 97.441 371.789 107.788 373.042C97.5824 368.537 90.0552 361.852 84.6414 353.92C63.6709 323.209 89.2035 285.782 120.816 274.791C103.991 296.225 104.206 327.751 118.817 333.253C128.549 336.917 146.798 332.699 168.035 303.228C194.987 265.825 217.488 268.386 250.941 254.399C276.119 243.875 297.69 227.084 309.391 204.965C319.285 186.261 320.737 166.08 314.737 145.818Z" fill="#00432C"/>
<path fill-rule="evenodd" clip-rule="evenodd" d="M325.615 138.39L326.761 142.259C333.677 165.624 331.92 189.194 320.474 210.827C310.873 228.97 296.225 243.07 279.234 253.775C243.319 276.398 217.009 266.554 213.508 323.894C213.534 326.654 213.531 329.402 213.43 332.118C212.484 357.689 205.479 381.365 190.603 402.505C190.603 402.505 270.28 385.24 271.343 295.999C271.343 295.999 273.866 301.713 274.53 315.389C274.53 315.389 304.013 305.295 331.104 297.862C358.188 290.423 370.674 276.878 370.674 276.878L345.44 252.709C345.44 252.709 372.799 274.485 408.918 281.924C408.918 281.924 390.594 271.694 375.192 230.528C375.192 230.528 381.784 241.102 391.659 246.329C408.04 199.587 378.151 106.938 329.39 88.2647C308.431 80.2397 304.549 105.262 292.605 126.278C292.605 126.278 319.683 141.025 341.197 114.066C341.197 114.066 338.549 128.564 325.615 138.39Z" fill="#00C012"/>
<path fill-rule="evenodd" clip-rule="evenodd" d="M208.083 366.2C204.355 378.972 198.624 391.103 190.603 402.505C190.603 402.505 270.28 385.24 271.343 295.999C271.343 295.999 273.866 301.713 274.53 315.389C274.53 315.389 304.013 305.295 331.104 297.862C358.188 290.423 370.674 276.878 370.674 276.878L345.44 252.709C345.44 252.709 372.799 274.485 408.918 281.924C408.918 281.924 390.594 271.694 375.192 230.528C375.192 230.528 381.784 241.102 391.659 246.329C404.918 208.491 387.859 140.577 355.011 106.165C392.426 161.169 378.101 197.73 372.525 215.787C366.949 233.849 372.263 254.958 372.263 254.958C349.285 251.507 338.799 245.401 338.799 245.401L353.004 270.896C328.481 285.706 296.486 293.152 266.822 285.501C259.12 335.969 208.084 366.2 208.084 366.2H208.083Z" fill="#07A616"/>
<path fill-rule="evenodd" clip-rule="evenodd" d="M325.614 138.391L326.761 142.261C333.677 165.625 331.92 189.196 320.474 210.828C310.873 228.972 296.224 243.072 279.233 253.776C268.778 260.362 259.138 264.194 250.637 267.739C334.05 246.53 373.303 199.894 341.197 114.067C341.197 114.067 338.549 128.566 325.614 138.391Z" fill="#07A616"/>
</svg>
