<svg width="371" height="500" viewBox="0 0 371 500" fill="none" xmlns="http://www.w3.org/2000/svg">
<path d="M256.207 99.6004C257.16 93.756 256.928 88.433 255.571 83.1957C253.001 73.1559 246.331 66.2706 237.957 60.802C235.791 59.3842 233.567 58.1405 231.315 56.8959C230.333 56.3469 229.958 55.913 230.391 54.6683C232.528 48.3035 233.827 41.7644 234.347 35.0808C234.434 33.8951 234.462 32.7951 236.339 33.5764C255.254 41.2725 269.606 63.3484 265.014 84.0054C263.629 90.1391 260.336 96.1282 256.207 99.6004Z" fill="#0B9519"/>
<path d="M352.849 0.198149C340.634 11.4239 328.39 22.6495 316.174 33.9044C300.957 47.9368 285.767 62.0264 270.548 76.0884C270.086 76.5223 269.538 76.8981 268.643 77.5632C269.105 71.6608 268.499 66.2513 267.228 60.8988C265.957 55.5454 263.676 50.6278 259.807 46.1432C265.005 43.5103 270.058 40.9354 275.112 38.4176C299.975 25.9475 324.867 13.4781 349.758 1.06616C350.683 0.603228 351.549 -0.496194 352.877 0.2561L352.849 0.198149Z" fill="#0B9519"/>
<path d="M58.8805 300.056C53.5383 285.127 51.5752 269.649 51.8924 253.851C52.239 235.104 56.7731 217.194 62.9814 199.632C64.8876 194.221 66.2732 188.841 66.5904 182.996C67.9485 156.262 77.9112 132.625 92.898 110.752C113.198 81.1255 140.95 61.8852 174.563 50.4857C177.711 49.4152 180.887 48.3732 184.064 47.3903C185.132 47.0715 185.912 46.5215 186.518 45.5671C191.283 38.0737 197.723 32.3454 205.461 28.0635C205.663 27.9474 205.808 27.6866 206.299 27.1661C178.23 23.5788 151.432 27.3393 125.27 37.1764C143.173 35.3542 160.817 34.7462 176.757 46.493C171.675 45.6537 167.113 44.9305 162.463 44.6993C146.061 43.9466 130.785 48.2867 115.913 54.6811C90.0098 65.7913 66.995 81.2406 47.0117 101.146C24.0263 124.061 8.95217 151.344 2.30972 183.227C1.76175 185.832 1.38566 188.493 1.01052 191.155C0.982043 191.299 0.952569 191.01 0.952569 190.287C0.952569 190.461 0.924086 190.663 0.866146 190.837C0.866146 192.283 0.491 193.643 0.230762 195.061C0.144344 195.524 0.0864186 195.987 0 196.45C1.7323 213.578 5.45812 252.636 11.9267 266.408C11.2334 262.647 10.4822 258.914 9.81834 255.154C5.91969 232.991 4.27379 210.742 9.01011 188.493C13.4852 167.517 23.0148 149.377 39.62 135.431C46.8389 129.384 55.0977 124.957 63.2987 120.473C70.9222 116.307 78.5456 112.17 85.8804 106.643C85.5053 108.206 84.4948 108.784 83.7435 109.508C75.8892 117.059 66.3596 122.209 57.2346 127.938C37.5695 140.205 38.58 139.713 31.418 161.818C24.6607 182.707 23.3035 204.348 24.863 226.163C26.2496 245.809 30.0903 264.933 36.992 283.42C42.7379 298.783 51.6616 312.324 60.9889 325.661C66.0709 332.952 71.2983 340.186 74.2149 348.692C77.3328 357.748 77.5066 367.064 76.4667 376.438C76.4087 376.988 76.3803 377.538 76.5246 378.116C79.124 372.676 80.2789 366.861 81.1451 360.959C83.1376 347.506 78.633 335.759 71.9621 324.504C67.1973 316.577 61.9994 308.823 58.8805 300.056Z" fill="#0B9519"/>
<path d="M370.608 359.077C370.608 358.788 370.578 358.499 370.578 358.18C370.578 358.007 370.55 357.804 370.55 357.63C370.55 357.573 370.521 357.312 370.492 357.254C370.434 356.878 370.348 356.56 370.261 356.184C370.232 356.155 370.233 356.126 370.203 356.097C369.626 355.75 369.453 354.969 369.712 354.361C369.684 354.448 369.654 354.535 369.626 354.651C368.586 345.739 366.623 337.001 364.688 328.293C362.696 319.295 361.886 310.153 360.732 301.067C360.183 296.872 358.508 293.69 354.84 291.173C343.751 283.534 333.79 274.681 326.772 262.935C324.952 259.897 323.393 256.743 321.949 253.502C318.427 245.72 308.897 240.598 300.494 241.959C297.692 242.422 295.065 243.376 293.274 245.662C283.11 258.508 270.201 268.143 256.745 277.169C251.576 280.613 246.407 284.026 241.96 288.424C240.631 289.755 240.371 290.565 241.353 292.214C247.533 302.861 252.384 314.029 254.463 326.268C255.243 330.781 255.503 335.352 255.676 340.155C256.975 339.606 257.496 338.564 258.16 337.725C271.905 320.452 287.21 304.771 304.796 291.404C306.385 290.189 306.674 289.408 305.259 287.846C303.525 285.936 301.88 283.939 299.916 282.262C294.516 277.633 289.145 272.859 281.06 275.839C286.748 271.21 290.243 271.036 295.729 274.942C310.283 285.329 323.076 297.538 333.847 311.917C336.937 316.054 337.948 320.683 337.687 325.689C337.485 329.19 334.858 331.215 332.634 333.385C330.353 335.584 328.187 337.841 326.772 340.734C324.866 344.611 325.299 347.447 328.649 350.166C331.912 352.799 335.436 355.113 338.699 357.775C344.242 362.259 345.398 364.864 345.166 371.287C344.242 371.287 344.33 370.477 344.098 369.927C342.424 365.529 339.565 362 336.041 358.961C334.945 358.007 334.309 357.688 333.645 359.425C331.306 365.615 326.916 369.753 320.737 371.981C318.802 372.675 318.571 373.688 319.263 375.452C321.083 380.168 323.913 384.219 326.945 388.154C333.616 396.776 341.211 404.357 351.202 409.131C354.465 410.692 354.552 410.577 354.407 406.932C353.974 396.863 354.263 386.852 357.382 377.131C357.988 375.25 358.653 374.151 361.049 374.122C365.352 374.093 367.46 371.981 369.799 365.963C369.799 366.137 369.828 366.281 369.828 366.426C369.828 366.426 369.828 366.397 369.857 366.397C369.857 366.281 369.857 366.165 369.886 366.049C370.29 364.922 370.781 363.88 370.839 362.665C370.752 361.45 370.636 360.263 370.608 359.077Z" fill="#0B9519"/>
<path d="M191.506 391.503C190.756 378.426 186.222 366.361 180.128 354.845C171.234 338.036 158.99 323.773 146.169 309.943C132.972 295.708 118.273 282.978 104.73 269.119C89.5695 253.611 76.5458 236.686 69.3269 215.854C68.6336 213.887 67.9983 211.919 67.0742 209.142C65.6306 215.218 65.0531 220.628 64.5906 226.038C62.6275 250.139 64.5327 273.951 70.5682 297.415C75.6797 317.234 84.0829 335.432 96.5291 351.837C104.961 362.975 109.178 375.735 107.935 389.94C107.733 392.284 107.214 394.628 106.752 397.55C111.257 393.529 112.527 388.639 113.163 383.489C114.49 372.523 111.343 362.513 106.405 352.907C101.727 343.823 95.7779 335.432 91.7359 326C88.9636 319.548 87.1734 312.865 87.2018 305.748C87.4326 306.442 87.7508 307.107 87.8951 307.802C88.7033 311.852 90.2913 315.643 91.8223 319.461C94.0741 325.19 97.5397 329.646 102.68 333.378C118.129 344.574 133.434 356.061 146.746 369.92C155.554 379.091 163.669 388.957 166.874 401.485C174.325 430.735 168.982 457.18 148.249 479.804C141.548 487.125 133.838 493.142 125.608 498.639C124.395 499.45 123.154 499.855 121.768 500C123.501 500 125.262 500 126.995 499.942C135.081 497.743 142.733 494.705 149.721 490.075C164.939 480.037 174.844 465.743 181.746 449.194C189.456 430.765 192.632 411.438 191.506 391.503Z" fill="#0B9519"/>
<path d="M232.882 290.159C223.872 276.618 213.505 264.091 203.34 251.418C191.472 236.605 185.09 220.027 185.726 200.903C186.043 191.355 188.093 182.328 193.58 174.372C194.764 172.635 194.186 171.999 192.829 171.044C187.342 167.081 181.885 163.03 176.832 158.488C161.411 144.658 156.964 127.357 160.775 107.509C162.046 100.999 164.79 95.068 169.612 90.2646C169.554 90.9307 169.294 91.4807 169.034 92.0592C160.342 109.91 159.621 131.523 175.012 149.114C184.57 160.022 196.266 167.543 209.665 172.723C211.05 173.243 212.61 173.446 213.505 174.95C216.047 179.261 219.367 182.964 222.544 186.784C230.225 196.013 234.644 206.111 232.016 218.465C231.092 222.833 233.229 226.074 237.011 228.186C240.275 230.009 243.797 231.079 248.042 231.774C243.884 223.817 242.758 215.715 242.181 207.499C242.093 206.342 241.343 204.606 242.498 204.085C243.913 203.448 245.357 204.663 246.541 205.677C247.696 206.66 247.84 207.933 247.609 209.322C247.321 211.029 246.945 212.707 246.801 214.414C246.339 220.403 246.136 226.363 250.959 230.993C253.529 233.451 257.63 233.972 259.998 231.426C264.762 226.277 270.596 222.371 275.621 217.539C282.406 211 282.579 209.322 277.67 201.337C276.024 198.675 275.533 196.013 276.457 192.888C278.392 186.35 279.172 179.58 279.172 172.78C279.172 158.951 276.14 145.67 270.884 132.911C268.892 128.08 268.748 123.335 269.787 118.33C271.057 112.224 271.953 106.062 270.654 99.8419C269.874 96.167 268.487 92.8405 265.6 90.1495C260.373 100.681 255.637 105.628 250.554 105.859C250.815 104.819 251.075 103.805 251.334 102.822C252.807 97.1509 252.98 91.4512 251.422 85.8095C247.927 73.1368 239.581 64.4282 228.175 58.5258C226.096 57.4553 225.287 56.7616 226.269 54.1287C230.254 43.2792 232.074 31.9948 231.813 20.3935C231.785 18.8599 231.669 18.0208 229.792 18.831C214.372 25.5148 200.915 34.7438 190.924 48.5155C190.114 49.6155 189.277 50.1645 187.949 50.4253C179.893 52.0458 172.009 54.3314 164.53 57.716C115.496 79.8785 84.5689 116.998 72.8445 169.801C70.7361 179.319 69.5527 188.983 71.0827 198.82C73.1617 212.158 78.8506 223.933 86.3877 234.898C98.1406 252.027 112.955 266.435 127.596 280.958C145.298 298.52 163.49 315.619 177.351 336.625C177.467 336.798 177.582 336.942 177.698 337.117L181.683 342.873C182.722 344.581 183.733 346.288 184.686 347.995C201.175 377.94 199.962 409.968 190.75 443.008C191.472 442.691 191.905 442.517 192.309 442.285C195.197 440.608 198.143 439.016 200.943 437.194C218.848 425.447 232.709 410.315 239.466 389.6C243.913 375.943 245.415 362.056 241.343 347.995C241.315 347.85 241.285 347.735 241.257 347.59C241.141 347.185 241.026 346.78 240.88 346.432C238.831 339.951 237.358 338.187 237.358 338.187H237.329C237.272 338.042 237.242 337.898 237.156 337.724C237.098 337.609 237.069 337.492 236.983 337.348C234.297 332.487 231.438 327.742 227.973 323.402C226.846 321.984 225.663 320.567 224.537 319.15C230.514 322.765 235.423 327.511 238.599 333.558C240.621 337.406 243.163 338.736 247.176 338.071C247.465 338.013 247.754 338.013 248.042 338.042C249.284 338.187 249.602 337.609 249.718 336.422C250.035 333.152 249.718 329.941 249.227 326.73C247.06 313.102 240.39 301.442 232.882 290.159Z" fill="#0B9519"/>
</svg>
